# xmcd
#
# Track frame offsets: 
#        182
#        13707
#        24877
#        37400
#        49060
#        60695
#        73450
#        86470
#        99820
#        113265
#        128900
#        144072
#        159062
#        171775
#        183577
#        197737
#        210245
#        223675
#        238415
#        253862
#        266245
#        275960
#        289545
#        302970
#        316347
#
# Disc length: 4387 seconds
#
# Revision: 2
# Processed by: cddbd v1.5.2PL0 Copyright (c) Steve Scherf et al.
# Submitted via: ExactAudioCopy v0.99pb5
#
DISCID=6f112119
DTITLE=Various Artist - Sissy Man Blues
DYEAR=1996
DGENRE=Blues
TTITLE0=Connie McLean's Rhythm Boys - Sissy Man Blues
TTITLE1=Harlem Hamfats - Garbage Man (The Call of the Freaks)
TTITLE2=Tampa Red's Hokum Jug Band - It's Tight Like That
TTITLE3=Ma Rainey and her Tub Jug Washboard Band - Prove It On Me Blue
TTITLE3=s
TTITLE4=George Hannah and Meade Lux Lewis - The Boy In the Boat
TTITLE5=George Hannah and Meade Lux Lewis - Freakish Man Blues
TTITLE6=Bessie Jackson and Walter Roland - B. D. Woman's Blues
TTITLE7=Al Miller and his Swing Stompers - Ain't That a Mess
TTITLE8=Peg Leg Howell - Fairey Blues
TTITLE9=Bert "Snake Root" Hatton - Freakish Rider Blues
TTITLE10=Victoria Spivey and Lonnie Johnson - Toothache Blues
TTITLE11=Maggie Jones - Anybody Here Want To Try My Cabbage
TTITLE12=Lil Johnson - Take Your Hand Off It
TTITLE13=Washboard Sam - I'm Gonna Keep My Hair Parted
TTITLE14=Sippie Wallace and Herschal Thomas - I'm a Mighty Tight Woman
TTITLE15=Mae Glover and John Bird - Gas Man Blues
TTITLE16=Victoria Spivey - Black Snake Blues
TTITLE17=Blanche Calloway and her Joy Boys - I Got What It Takes
TTITLE18=Hokum Boys - Somebody's Been Usin' That Thing
TTITLE19=Papa Charlie Jackson - Shave 'Em Dry
TTITLE20=Monette Moore and her Swing Shop Boys - Two Old Maids In a Fo
TTITLE20=lding Bed
TTITLE21=Ruby Glaze and Blind Willie McTell - Rollin' Mama Blues
TTITLE22=Ruth Ladson and Three Shadows - Windy City Blues
TTITLE23=Lucille Bogan - Stew Meat Blues
TTITLE24="Pinewood Tom" (Josh White) - Sissy Man Blues
EXTD=LABEL =Jass Records, Inc.\nID =J-CD-13\nUPC =03250-12013-27\nC
EXTD=OPYRIGHT =1989
EXTT0=
EXTT1=
EXTT2=
EXTT3=
EXTT4=
EXTT5=
EXTT6=
EXTT7=
EXTT8=
EXTT9=
EXTT10=
EXTT11=
EXTT12=
EXTT13=
EXTT14=
EXTT15=
EXTT16=
EXTT17=
EXTT18=
EXTT19=
EXTT20=
EXTT21=
EXTT22=
EXTT23=
EXTT24=
PLAYORDER=
